<svg xmlns="http://www.w3.org/2000/svg"><defs><symbol id="check" viewBox="0 0 24 24"><path d="M20 6 9 17l-5-5" /></symbol><symbol id="check-check" viewBox="0 0 24 24"><path d="M18 6 7 17l-5-5" /> <path d="m22 10-7.5 7.5L13 16" /></symbol><symbol id="chevron-down" viewBox="0 0 24 24"><path d="m6 9 6 6 6-6" /></symbol><symbol id="copy" viewBox="0 0 24 24"><rect width="14" height="14" x="8" y="8" rx="2" ry="2" /> <path d="M4 16c-1.1 0-2-.9-2-2V4c0-1.1.9-2 2-2h10c1.1 0 2 .9 2 2" /></symbol><symbol id="door-closed" viewBox="0 0 24 24"><path d="M10 12h.01" /> <path d="M18 20V6a2 2 0 0 0-2-2H8a2 2 0 0 0-2 2v14" /> <path d="M2 20h20" /></symbol><symbol id="layout-grid" viewBox="0 0 24 24"><rect width="7" height="7" x="3" y="3" rx="1" /> <rect width="7" height="7" x="14" y="3" rx="1" /> <rect width="7" height="7" x="14" y="14" rx="1" /> <rect width="7" height="7" x="3" y="14" rx="1" /></symbol><symbol id="loader-circle" viewBox="0 0 24 24"><path d="M21 12a9 9 0 1 1-6.219-8.56" /></symbol><symbol id="map" viewBox="0 0 24 24"><path d="M14.106 5.553a2 2 0 0 0 1.788 0l3.659-1.83A1 1 0 0 1 21 4.619v12.764a1 1 0 0 1-.553.894l-4.553 2.277a2 2 0 0 1-1.788 0l-4.212-2.106a2 2 0 0 0-1.788 0l-3.659 1.83A1 1 0 0 1 3 19.381V6.618a1 1 0 0 1 .553-.894l4.553-2.277a2 2 0 0 1 1.788 0z" /> <path d="M15 5.764v15" /> <path d="M9 3.236v15" /></symbol><symbol id="megaphone" viewBox="0 0 24 24"><path d="M11 6a13 13 0 0 0 8.4-2.8A1 1 0 0 1 21 4v12a1 1 0 0 1-1.6.8A13 13 0 0 0 11 14H5a2 2 0 0 1-2-2V8a2 2 0 0 1 2-2z" /> <path d="M6 14a12 12 0 0 0 2.4 7.2 2 2 0 0 0 3.2-2.4A8 8 0 0 1 10 14" /> <path d="M8 6v8" /></symbol><symbol id="phone" viewBox="0 0 24 24"><path d="M13.832 16.568a1 1 0 0 0 1.213-.303l.355-.465A2 2 0 0 1 17 15h3a2 2 0 0 1 2 2v3a2 2 0 0 1-2 2A18 18 0 0 1 2 4a2 2 0 0 1 2-2h3a2 2 0 0 1 2 2v3a2 2 0 0 1-.8 1.6l-.468.351a1 1 0 0 0-.292 1.233 14 14 0 0 0 6.392 6.384" /></symbol><symbol id="qr-code" viewBox="0 0 24 24"><rect width="5" height="5" x="3" y="3" rx="1" /> <rect width="5" height="5" x="16" y="3" rx="1" /> <rect width="5" height="5" x="3" y="16" rx="1" /> <path d="M21 16h-3a2 2 0 0 0-2 2v3" /> <path d="M21 21v.01" /> <path d="M12 7v3a2 2 0 0 1-2 2H7" /> <path d="M3 12h.01" /> <path d="M12 3h.01" /> <path d="M12 16v.01" /> <path d="M16 12h1" /> <path d="M21 12v.01" /> <path d="M12 21v-1" /></symbol><symbol id="radio" viewBox="0 0 24 24"><path d="M16.247 7.761a6 6 0 0 1 0 8.478" /> <path d="M19.075 4.933a10 10 0 0 1 0 14.134" /> <path d="M4.925 19.067a10 10 0 0 1 0-14.134" /> <path d="M7.753 16.239a6 6 0 0 1 0-8.478" /> <circle cx="12" cy="12" r="2" /></symbol><symbol id="rows-3" viewBox="0 0 24 24"><rect width="18" height="18" x="3" y="3" rx="2" /> <path d="M21 9H3" /> <path d="M21 15H3" /></symbol><symbol id="user-round" viewBox="0 0 24 24"><circle cx="12" cy="8" r="5" /> <path d="M20 21a8 8 0 0 0-16 0" /></symbol><symbol id="users-round" viewBox="0 0 24 24"><path d="M18 21a8 8 0 0 0-16 0" /> <circle cx="10" cy="8" r="5" /> <path d="M22 20c0-3.37-2-6.5-4-8a5 5 0 0 0-.45-8.3" /></symbol><symbol id="waypoints" viewBox="0 0 24 24"><path d="m10.586 5.414-5.172 5.172" /> <path d="m18.586 13.414-5.172 5.172" /> <path d="M6 12h12" /> <circle cx="12" cy="20" r="2" /> <circle cx="12" cy="4" r="2" /> <circle cx="20" cy="12" r="2" /> <circle cx="4" cy="12" r="2" /></symbol></defs></svg>
